<svg width="14" height="15" viewBox="0 0 14 15" fill="none" xmlns="http://www.w3.org/2000/svg">
<g clip-path="url(#clip0_25_1658)">
<path fill-rule="evenodd" clip-rule="evenodd" d="M1.4403 4.81524C1.48094 4.7745 1.52922 4.74217 1.58237 4.72011C1.63552 4.69806 1.6925 4.68671 1.75005 4.68671C1.8076 4.68671 1.86458 4.69806 1.91773 4.72011C1.97088 4.74217 2.01916 4.7745 2.0598 4.81524L7.00005 9.75636L11.9403 4.81524C11.981 4.77456 12.0293 4.74229 12.0824 4.72028C12.1356 4.69827 12.1925 4.68694 12.25 4.68694C12.3076 4.68694 12.3645 4.69827 12.4177 4.72028C12.4708 4.74229 12.5191 4.77456 12.5598 4.81524C12.6005 4.85592 12.6327 4.90421 12.6548 4.95735C12.6768 5.0105 12.6881 5.06746 12.6881 5.12499C12.6881 5.18251 12.6768 5.23948 12.6548 5.29262C12.6327 5.34577 12.6005 5.39406 12.5598 5.43474L7.3098 10.6847C7.26916 10.7255 7.22088 10.7578 7.16773 10.7799C7.11458 10.8019 7.0576 10.8133 7.00005 10.8133C6.9425 10.8133 6.88552 10.8019 6.83237 10.7799C6.77922 10.7578 6.73094 10.7255 6.6903 10.6847L1.4403 5.43474C1.39956 5.3941 1.36723 5.34582 1.34518 5.29267C1.32312 5.23952 1.31177 5.18253 1.31177 5.12499C1.31177 5.06744 1.32312 5.01046 1.34518 4.95731C1.36723 4.90416 1.39956 4.85588 1.4403 4.81524Z" fill="black" fill-opacity="0.87"/>
</g>
<defs>
<clipPath id="clip0_25_1658">
<rect width="14" height="14" fill="white" transform="translate(0 0.75)"/>
</clipPath>
</defs>
</svg>
