<svg width="34" height="35" viewBox="0 0 34 35" fill="none" xmlns="http://www.w3.org/2000/svg">
<g clip-path="url(#clip0_25_1640)">
<path fill-rule="evenodd" clip-rule="evenodd" d="M17 2.875C8.78475 2.875 2.125 9.53475 2.125 17.75C2.125 25.9653 8.78475 32.625 17 32.625C25.2153 32.625 31.875 25.9653 31.875 17.75C31.875 9.53475 25.2153 2.875 17 2.875Z" fill="#E92B2B"/>
<path fill-rule="evenodd" clip-rule="evenodd" d="M29.8852 25.1875H4.11523C4.92495 26.5873 5.95621 27.8428 7.16104 28.9062H26.8394C28.0442 27.8428 29.0755 26.5873 29.8852 25.1875Z" fill="#FBFBFB"/>
<path fill-rule="evenodd" clip-rule="evenodd" d="M31.875 17.75H2.125C2.125 19.0341 2.28771 20.2801 2.59363 21.4688H31.4064C31.7123 20.2801 31.875 19.0341 31.875 17.75Z" fill="#FBFBFB"/>
<path fill-rule="evenodd" clip-rule="evenodd" d="M29.8851 10.3125H4.11513C3.44933 11.4635 2.93332 12.712 2.59375 14.0312H31.4065C31.0669 12.712 30.5509 11.4635 29.8851 10.3125Z" fill="#FBFBFB"/>
<path fill-rule="evenodd" clip-rule="evenodd" d="M26.8385 6.59375H7.16016C9.78241 4.27933 13.2269 2.875 16.9994 2.875C20.7718 2.875 24.2163 4.27933 26.8385 6.59375Z" fill="#FBFBFB"/>
<path fill-rule="evenodd" clip-rule="evenodd" d="M15.5129 2.94922V17.7508H2.125C2.125 10.0375 7.99591 3.69534 15.5129 2.94922Z" fill="#2A2FAF"/>
<path fill-rule="evenodd" clip-rule="evenodd" d="M4.3933 9.85156H5.02828L4.15395 10.4868L4.48792 11.5146L3.75195 10.9799C3.94965 10.5937 4.16374 10.2173 4.3933 9.85156Z" fill="#FBFBFB"/>
<path fill-rule="evenodd" clip-rule="evenodd" d="M2.47852 14.5199C2.49355 14.452 2.50904 14.3844 2.525 14.3169H3.27981L3.61377 13.2891L3.94774 14.3169H5.02847L4.15414 14.9521L4.4881 15.98L3.61377 15.3447L2.73945 15.98L3.07341 14.9521L2.47852 14.5199Z" fill="#FBFBFB"/>
<path fill-rule="evenodd" clip-rule="evenodd" d="M7.4241 6.36756C7.83774 6.01917 8.27071 5.69291 8.72108 5.39062H9.4902L8.61582 6.02586L8.94978 7.0537L8.07548 6.41846L7.20117 7.0537L7.4241 6.36756Z" fill="#FBFBFB"/>
<path d="M8.07683 8.82422L8.41079 9.85205H9.49155L8.61718 10.4873L8.9512 11.5151L8.07683 10.8799L7.20252 11.5151L7.53648 10.4873L6.66211 9.85205H7.74287L8.07683 8.82422Z" fill="#FBFBFB"/>
<path d="M8.07683 13.2891L8.41079 14.3169H9.49155L8.61718 14.9521L8.9512 15.98L8.07683 15.3447L7.20252 15.98L7.53648 14.9521L6.66211 14.3169H7.74287L8.07683 13.2891Z" fill="#FBFBFB"/>
<path d="M12.5378 4.36328L12.8717 5.39112H13.9524L13.0781 6.02636L13.4121 7.0542L12.5378 6.41896L11.6634 7.0542L11.9974 6.02636L11.123 5.39112H12.2038L12.5378 4.36328Z" fill="#FBFBFB"/>
<path d="M12.5378 8.82422L12.8717 9.85205H13.9524L13.0781 10.4873L13.4121 11.5151L12.5378 10.8799L11.6634 11.5151L11.9974 10.4873L11.123 9.85205H12.2038L12.5378 8.82422Z" fill="#FBFBFB"/>
<path d="M12.5378 13.2891L12.8717 14.3169H13.9524L13.0781 14.9521L13.4121 15.98L12.5378 15.3447L11.6634 15.98L11.9974 14.9521L11.123 14.3169H12.2038L12.5378 13.2891Z" fill="#FBFBFB"/>
</g>
<defs>
<clipPath id="clip0_25_1640">
<rect width="34" height="34" fill="white" transform="translate(0 0.75)"/>
</clipPath>
</defs>
</svg>
