<svg width="25" height="25" viewBox="0 0 25 25" fill="none" xmlns="http://www.w3.org/2000/svg">
<g clip-path="url(#clip0_25_1839)">
<path d="M21.8368 11.0259H21.0312V10.9844H12.0312V14.9844H17.6828C16.8583 17.3129 14.6427 18.9844 12.0312 18.9844C8.71775 18.9844 6.03125 16.2979 6.03125 12.9844C6.03125 9.67088 8.71775 6.98438 12.0312 6.98438C13.5608 6.98438 14.9523 7.56137 16.0118 8.50387L18.8403 5.67537C17.0542 4.01087 14.6652 2.98438 12.0312 2.98438C6.50875 2.98438 2.03125 7.46187 2.03125 12.9844C2.03125 18.5069 6.50875 22.9844 12.0312 22.9844C17.5538 22.9844 22.0312 18.5069 22.0312 12.9844C22.0312 12.3139 21.9622 11.6594 21.8368 11.0259Z" fill="#FFC107"/>
<path d="M3.18359 8.32987L6.46909 10.7394C7.35809 8.53837 9.51109 6.98438 12.0306 6.98438C13.5601 6.98438 14.9516 7.56137 16.0111 8.50387L18.8396 5.67537C17.0536 4.01087 14.6646 2.98438 12.0306 2.98438C8.18959 2.98438 4.85859 5.15287 3.18359 8.32987Z" fill="#FF3D00"/>
<path d="M12.0314 22.9847C14.6144 22.9847 16.9614 21.9962 18.7359 20.3887L15.6409 17.7697C14.6031 18.5589 13.3351 18.9858 12.0314 18.9847C9.43041 18.9847 7.22191 17.3262 6.38991 15.0117L3.12891 17.5242C4.78391 20.7627 8.14491 22.9847 12.0314 22.9847Z" fill="#4CAF50"/>
<path d="M21.8368 11.0259H21.0312V10.9844H12.0312V14.9844H17.6828C17.2884 16.0926 16.578 17.061 15.6392 17.7699L15.6407 17.7689L18.7358 20.3879C18.5168 20.5869 22.0312 17.9844 22.0312 12.9844C22.0312 12.3139 21.9622 11.6594 21.8368 11.0259Z" fill="#1976D2"/>
</g>
<defs>
<clipPath id="clip0_25_1839">
<rect width="24" height="24" fill="white" transform="translate(0.03125 0.984375)"/>
</clipPath>
</defs>
</svg>
