<svg width="571" height="570" viewBox="0 0 571 570" fill="none" xmlns="http://www.w3.org/2000/svg">
<g clip-path="url(#clip0_25_1663)">
<g clip-path="url(#clip1_25_1663)">
<path d="M570.5 435.936H0.5V436.221H570.5V435.936Z" fill="#E6E6E6"/>
<path d="M142.794 453.184H105.037V453.469H142.794V453.184Z" fill="#E6E6E6"/>
<path d="M93.0914 453.184H71.2148V453.469H93.0914V453.184Z" fill="#E6E6E6"/>
<path d="M240.527 457.379H218.65V457.664H240.527V457.379Z" fill="#E6E6E6"/>
<path d="M354.596 463.74H305.359V464.025H354.596V463.74Z" fill="#E6E6E6"/>
<path d="M295.212 463.74H287.996V464.025H295.212V463.74Z" fill="#E6E6E6"/>
<path d="M517.319 457.379H410.523V457.664H517.319V457.379Z" fill="#E6E6E6"/>
<path d="M270.691 385.092H50.568C46.977 385.092 44.0586 382.173 44.0586 378.582V69.152C44.0586 65.561 46.977 62.6426 50.568 62.6426H270.702C274.293 62.6426 277.211 65.561 277.211 69.152V378.582C277.2 382.173 274.282 385.092 270.691 385.092ZM50.568 62.9276C47.1366 62.9276 44.3436 65.7206 44.3436 69.152V378.582C44.3436 382.014 47.1366 384.807 50.568 384.807H270.702C274.133 384.807 276.926 382.014 276.926 378.582V69.152C276.926 65.7206 274.133 62.9276 270.702 62.9276H50.568Z" fill="#E6E6E6"/>
<path d="M517.272 385.092H297.138C293.547 385.092 290.629 382.173 290.629 378.582V69.152C290.629 65.561 293.547 62.6426 297.138 62.6426H517.272C520.863 62.6426 523.782 65.561 523.782 69.152V378.582C523.782 382.173 520.863 385.092 517.272 385.092ZM297.138 62.9276C293.707 62.9276 290.914 65.7206 290.914 69.152V378.582C290.914 382.014 293.707 384.807 297.138 384.807H517.272C520.704 384.807 523.497 382.014 523.497 378.582V69.152C523.497 65.7206 520.704 62.9276 517.272 62.9276H297.138Z" fill="#E6E6E6"/>
<path d="M305.334 338.557H280.266V437.999H305.334V338.557Z" fill="#E0E0E0"/>
<path d="M300.569 437.998H305.335V424.455H295.576L300.569 437.998Z" fill="#FAFAFA"/>
<path d="M195.485 338.557H170.416V437.999H195.485V338.557Z" fill="#E0E0E0"/>
<path d="M305.336 338.557H191.336V429.688H305.336V338.557Z" fill="#FAFAFA"/>
<path d="M301.197 343.036V367.147H195.463V343.036H301.197ZM301.642 342.592H195.029V367.581H301.642V342.592Z" fill="#E0E0E0"/>
<path d="M196.101 437.998H191.336V424.455H201.083L196.101 437.998Z" fill="#FAFAFA"/>
<path d="M245.816 355.086C245.816 356.477 246.945 357.605 248.336 357.605C249.727 357.605 250.855 356.477 250.855 355.086C250.855 353.695 249.727 352.566 248.336 352.566C246.945 352.566 245.816 353.695 245.816 355.086Z" fill="#E6E6E6"/>
<path d="M301.197 372.062V396.173H195.463V372.062H301.197ZM301.642 371.629H195.029V396.618H301.642V371.629Z" fill="#E0E0E0"/>
<path d="M245.816 384.123C245.816 385.514 246.945 386.642 248.336 386.642C249.727 386.642 250.855 385.514 250.855 384.123C250.855 382.732 249.727 381.604 248.336 381.604C246.945 381.604 245.816 382.732 245.816 384.123Z" fill="#E6E6E6"/>
<path d="M301.197 401.097V425.208H195.463V401.097H301.197ZM301.642 400.652H195.029V425.641H301.642V400.652Z" fill="#E0E0E0"/>
<path d="M245.816 413.158C245.816 414.549 246.945 415.678 248.336 415.678C249.727 415.678 250.855 414.549 250.855 413.158C250.855 411.767 249.727 410.639 248.336 410.639C246.945 410.627 245.816 411.767 245.816 413.158Z" fill="#E6E6E6"/>
<path d="M180.176 280.805H155.107V438.011H180.176V280.805Z" fill="#E0E0E0"/>
<path d="M175.411 437.998H180.176V424.455H170.418L175.411 437.998Z" fill="#FAFAFA"/>
<path d="M86.4905 280.805H61.4219V438.011H86.4905V280.805Z" fill="#E0E0E0"/>
<path d="M180.176 280.805H82.3301V429.7H180.176V280.805Z" fill="#FAFAFA"/>
<path d="M175.958 285.011V318.721H86.5478V285.011H175.958ZM176.482 284.498H86.0234V319.245H176.482V284.498Z" fill="#E0E0E0"/>
<path d="M175.957 322.825V412.247H133.367V322.825H175.957ZM176.481 322.301H132.854V412.76H176.481V322.301Z" fill="#E0E0E0"/>
<path d="M129.138 322.825V412.247H86.5478V322.825H129.138ZM129.651 322.301H86.0234V412.76H129.651V322.301Z" fill="#E0E0E0"/>
<path d="M87.0953 437.998H82.3301V424.455H92.0885L87.0953 437.998Z" fill="#FAFAFA"/>
<path d="M128.727 301.871C128.727 303.262 129.855 304.39 131.246 304.39C132.637 304.39 133.765 303.262 133.765 301.871C133.765 300.48 132.637 299.352 131.246 299.352C129.855 299.352 128.727 300.48 128.727 301.871Z" fill="#E6E6E6"/>
<path d="M137.756 365.404C137.756 366.795 138.884 367.924 140.275 367.924C141.666 367.924 142.795 366.795 142.795 365.404C142.795 364.013 141.666 362.885 140.275 362.885C138.884 362.873 137.756 364.002 137.756 365.404Z" fill="#E6E6E6"/>
<path d="M119.711 365.404C119.711 366.795 120.84 367.924 122.23 367.924C123.621 367.924 124.75 366.795 124.75 365.404C124.75 364.013 123.621 362.885 122.23 362.885C120.84 362.873 119.711 364.002 119.711 365.404Z" fill="#E6E6E6"/>
<path d="M116.861 236.971H106.293C106.293 236.971 108.128 246.741 108.128 252.498C108.128 258.255 100.08 280.804 111.583 280.804C123.074 280.804 115.037 258.255 115.037 252.498C115.025 246.741 116.861 236.971 116.861 236.971Z" fill="#E0E0E0"/>
<path d="M76.6523 260.09V266.964C76.6523 274.579 82.8767 280.804 90.4919 280.804H97.3661C104.981 280.804 111.206 274.579 111.206 266.964V260.09H76.6523Z" fill="#F5F5F5"/>
<path d="M223.564 324.057C223.564 332.025 232.491 338.546 243.4 338.546H253.25C264.16 338.546 273.086 332.025 273.086 324.057H223.564Z" fill="#E0E0E0"/>
<path d="M484.555 312.394C478.582 317.273 470.339 326.199 462.781 338.762C457.754 347.13 454.721 355.896 453.388 367.479C453.422 354.369 453.456 340.29 453.502 326.997C455.018 323.577 458.483 315.689 460.969 309.464C469.268 288.682 472.357 283.575 479.813 265.643C489.765 241.737 499.957 213.362 497.038 215.631C491.087 220.248 468.287 262.941 465.825 269.063C457.343 290.084 454.984 305.406 453.524 320.192C453.57 307.709 453.616 296.24 453.661 287.394C453.809 258.54 454.3 249.227 454.539 246.354C455.462 244.895 456.545 243.196 457.184 242.273C462.542 234.532 464.605 227.931 469.655 216.383C476.803 200.013 482.971 170.954 481.169 172.425C473.668 178.524 467.763 191.645 459.988 208.369C452.213 225.081 454.436 234.703 452.897 248.976C452.578 251.78 452.327 262.348 452.145 277.008C450.127 261.39 446.354 251.108 439.457 241.76C430.975 230.257 422.767 222.494 416.748 218.435C410.729 214.377 427.145 242.626 435 254.961C441.988 265.939 448.429 275.629 452.065 285.171C451.871 305.03 451.78 330.178 451.78 353.594C449.979 342.935 447.038 331.466 443.116 322.586C438.397 311.915 431.146 295.545 425.378 289.982C423.987 288.648 431.42 320.488 436.185 328.958C440.95 337.428 444.45 345.408 447.448 350.208C448.144 351.325 450.469 355.646 451.792 358.131C451.803 386.711 451.951 411.927 452.202 420.512H453.433C453.353 418.3 453.331 403.754 453.365 384.51C456.34 374.068 463.135 362.144 468.755 351.268C474.865 339.378 490.529 307.515 484.555 312.394Z" fill="#E0E0E0"/>
<path d="M470.681 437.999H434.954L432.252 402.979H473.383L470.681 437.999Z" fill="#F0F0F0"/>
<path d="M476.039 407.06H429.595L428.262 395.238H477.373L476.039 407.06Z" fill="#F5F5F5"/>
<path d="M142.157 86.0703H78.2598V156.237H142.157V86.0703Z" fill="#E0E0E0"/>
<path d="M149.076 86.0703H83.0703V156.237H149.076V86.0703Z" fill="#F5F5F5"/>
<path d="M143.553 150.709V91.5996H88.6047V150.709H143.553Z" fill="white"/>
<path d="M130.225 136.367V105.918H101.918V136.367H130.225Z" fill="#F5F5F5"/>
<path d="M467.957 94.2441H408.598V159.429H467.957V94.2441Z" fill="#E0E0E0"/>
<path d="M474.387 94.2441H413.078V159.429H474.387V94.2441Z" fill="#F5F5F5"/>
<path d="M469.256 154.302V99.3887H418.218V154.302H469.256Z" fill="white"/>
<path d="M443.732 142.762C452.528 142.762 459.658 135.632 459.658 126.836C459.658 118.04 452.528 110.91 443.732 110.91C434.937 110.91 427.807 118.04 427.807 126.836C427.807 135.632 434.937 142.762 443.732 142.762Z" fill="#F5F5F5"/>
<path d="M208.538 127.908H161.137V179.961H208.538V127.908Z" fill="#E0E0E0"/>
<path d="M213.668 127.908H164.705V179.961H213.668V127.908Z" fill="#F5F5F5"/>
<path d="M209.568 175.854V132.01H168.813V175.854H209.568Z" fill="white"/>
<path d="M189.192 142.842L178.043 162.153H200.341L189.192 142.842Z" fill="#F5F5F5"/>
<path d="M285.499 487.419C407.573 487.419 506.534 481.641 506.534 474.514C506.534 467.387 407.573 461.609 285.499 461.609C163.425 461.609 64.4648 467.387 64.4648 474.514C64.4648 481.641 163.425 487.419 285.499 487.419Z" fill="#F5F5F5"/>
<path d="M398.645 186.311L387.336 181.729C387.336 181.729 372.413 208.94 368.138 210.32C362.324 212.189 350.297 217.388 343.149 218.357C342.18 219.485 340.596 223.031 340.744 224.33C350.331 227.522 371.399 223.282 375.913 219.93C386.185 212.292 398.645 186.311 398.645 186.311Z" fill="#E58A7B"/>
<path d="M402.121 180.143C404.23 187.94 392.807 203.604 392.807 203.604L377.805 195.191C377.805 195.191 380.598 188.75 384.029 182.195C389.547 171.593 399.715 171.239 402.121 180.143Z" fill="#23A455"/>
<path opacity="0.2" d="M402.121 180.143C404.23 187.94 392.807 203.604 392.807 203.604L377.805 195.191C377.805 195.191 380.598 188.75 384.029 182.195C389.547 171.593 399.715 171.239 402.121 180.143Z" fill="black"/>
<path opacity="0.2" d="M383.779 198.532L389.673 201.838L390.699 183.746C387.279 186.379 384.862 194.314 383.779 198.532Z" fill="black"/>
<path d="M392.271 174.261C392.271 174.261 380.62 200.185 387.415 248.452C401.243 248.452 426.597 248.452 433.323 248.452C434.052 241.407 431.635 207.025 440.379 173.828C440.379 173.828 432.604 172.243 425.126 171.89C419.278 171.605 410.796 171.422 405.609 171.89C398.781 172.505 392.271 174.261 392.271 174.261Z" fill="#23A455"/>
<path opacity="0.2" d="M392.271 174.261C392.271 174.261 380.62 200.185 387.415 248.452C401.243 248.452 426.597 248.452 433.323 248.452C434.052 241.407 431.635 207.025 440.379 173.828C440.379 173.828 432.604 172.243 425.126 171.89C419.278 171.605 410.796 171.422 405.609 171.89C398.781 172.505 392.271 174.261 392.271 174.261Z" fill="black"/>
<path d="M381.623 475.54C381.555 476.76 398.963 477.751 420.497 477.751C442.032 477.751 459.565 476.76 459.633 475.54C459.702 474.32 442.305 473.328 420.759 473.328C399.225 473.328 381.703 474.32 381.623 475.54Z" fill="#E8ECF1"/>
<path d="M413.341 444.782L405.172 447.93L412.176 466.109L420.345 462.961L413.341 444.782Z" fill="#E58A7B"/>
<path d="M448.576 466.773H439.992L436.846 446.902H445.43L448.576 466.773Z" fill="#E58A7B"/>
<path d="M439.445 465.781H449.089C449.443 465.781 449.728 466.021 449.785 466.363L451.027 473.989C451.153 474.776 450.491 475.528 449.682 475.517C446.319 475.46 444.7 475.266 440.459 475.266C437.849 475.266 432.457 475.54 428.854 475.54C425.332 475.54 424.99 471.983 426.483 471.652C433.186 470.204 435.785 468.209 438.02 466.306C438.419 465.964 438.932 465.781 439.445 465.781Z" fill="#23A455"/>
<path d="M410.865 462.784L420.008 460.128C420.35 460.025 420.703 460.174 420.851 460.481L424.237 467.321C424.59 468.028 424.169 468.917 423.382 469.134C420.076 470.035 417.842 470.605 413.692 471.813C410.831 472.645 407.912 474.002 405.085 474.902C403.124 475.529 398.519 475.552 396.136 475.552C392.613 475.552 391.827 471.836 393.332 471.665C397.151 471.232 397.664 471.437 399.773 470.377C403.261 468.621 405.963 467.173 408.984 464.015C409.531 463.457 410.147 462.989 410.865 462.784Z" fill="#23A455"/>
<path d="M344.586 218.275L335.147 214.297L331.26 224.762C331.26 224.762 336.709 225.754 342.933 224.762L344.586 218.275Z" fill="#E58A7B"/>
<path d="M328.124 214.047L327.873 221.001L331.259 224.763L335.146 214.298L328.124 214.047Z" fill="#E58A7B"/>
<path d="M413.367 444.759L405.199 447.912L408.816 457.282L416.984 454.129L413.367 444.759Z" fill="#CF6F64"/>
<path d="M445.43 446.902H436.846L438.476 457.151H447.06L445.43 446.902Z" fill="#CF6F64"/>
<path opacity="0.2" d="M385.955 235.4C386.115 237.463 386.32 239.572 386.559 241.738L420.691 230.657C426.026 229.061 430.655 225.71 433.824 221.138C433.949 218.094 434.132 214.891 434.382 211.551C434.496 209.921 434.645 208.256 434.793 206.569C434.952 204.813 435.146 203.024 435.351 201.211L385.955 235.4Z" fill="black"/>
<path d="M397.106 198.007L395.943 197.87C396.616 192.182 400.868 187.69 405.348 187.793L405.314 188.967C401.45 188.853 397.71 192.9 397.106 198.007Z" fill="white"/>
<path d="M403.182 208.529C403.114 208.529 403.057 208.529 402.988 208.529L403.022 207.355C406.944 207.503 410.626 203.41 411.23 198.314L412.393 198.451C411.732 204.06 407.617 208.529 403.182 208.529Z" fill="white"/>
<path d="M424.487 149.91C422.891 156.192 420.987 167.694 425.137 171.889C425.137 171.889 422.241 178.262 410.568 178.262C399.909 178.262 405.62 171.889 405.62 171.889C412.722 170.214 412.848 165.027 411.913 160.147L424.487 149.91Z" fill="#E58A7B"/>
<path d="M419.358 154.082L411.914 160.135C412.142 161.287 412.302 162.461 412.313 163.601C414.49 165.767 418.857 160.284 419.301 157.479C419.529 156.077 419.552 154.732 419.358 154.082Z" fill="#CF6F64"/>
<path d="M399.112 149.83C400.207 151.779 402.133 152.999 403.946 153.41C406.682 154.014 408.061 151.506 407.309 148.963C406.625 146.683 404.391 143.617 401.632 144.141C398.93 144.654 397.87 147.595 399.112 149.83Z" fill="#CF6F64"/>
<path d="M403.638 129.733C399.374 131.683 397.869 148.623 403.227 151.131C408.585 153.628 411.709 126.028 403.638 129.733Z" fill="#263238"/>
<path d="M425.787 140.46C424.761 148.964 424.601 153.969 420.053 158.324C413.213 164.89 402.941 160.991 401.414 152.51C400.034 144.872 401.938 132.252 410.454 128.866C418.844 125.537 426.802 131.955 425.787 140.46Z" fill="#E58A7B"/>
<path d="M411.777 134.133C418.081 132.514 422.721 131.42 421.068 136.687C418.856 143.698 416.211 150.492 419.768 150.811C421.923 151.005 431.51 146.935 430.29 142.831C429.23 139.252 433.688 138.283 434.508 136.459C437.461 129.881 429.014 130.736 430.518 126.757C431.978 122.881 423.713 116.338 419.13 119.541C411.708 124.717 398.975 124.648 405.666 116.155C410.466 110.079 401.904 111.322 401.904 111.322C401.904 111.322 407.08 114.388 398.37 119.131C389.148 124.169 397.595 137.77 411.777 134.133Z" fill="#263238"/>
<path d="M429.083 149.83C427.761 151.779 425.697 152.999 423.828 153.41C421.023 154.014 419.94 151.506 420.989 148.963C421.935 146.683 424.534 143.617 427.225 144.141C429.87 144.654 430.588 147.595 429.083 149.83Z" fill="#E58A7B"/>
<path d="M387.415 248.451C387.415 248.451 379.709 317.421 379.105 343.596C378.478 370.819 405.222 455.76 405.222 455.76L418.913 450.015C418.913 450.015 402.976 372.415 405.188 345.67C407.605 316.521 417.591 248.451 417.591 248.451H387.415Z" fill="#263238"/>
<path opacity="0.2" d="M406.567 267.387C400.433 280.132 404.56 305.326 407.889 320.271C409.154 309.726 410.659 298.281 412.084 287.69C411.947 271.411 410.682 258.837 406.567 267.387Z" fill="black"/>
<path d="M418.298 445.547C418.367 445.524 419.917 449.913 419.917 449.913L404.139 456.537L401.654 451.908L418.298 445.547Z" fill="black"/>
<path d="M403.705 248.451C403.705 248.451 409.599 314.047 413.509 338.614C417.784 365.529 434.599 455.167 434.599 455.167H450.32C450.32 455.167 440.903 367.707 439.125 341.053C437.198 312.132 433.345 248.451 433.345 248.451H403.705Z" fill="#263238"/>
<path d="M450.548 451.076C450.616 451.076 451.072 455.465 451.072 455.465H433.79L432.559 450.426L450.548 451.076Z" fill="black"/>
<path opacity="0.2" d="M444.529 445.876C444.449 445.876 444.392 445.819 444.381 445.751C444.29 444.953 435.797 365.985 434.201 342.057C432.468 316.076 428.98 258.483 428.945 257.902C428.945 257.822 429.002 257.754 429.082 257.742H429.094C429.173 257.742 429.23 257.799 429.242 257.879C429.276 258.46 432.764 316.053 434.497 342.034C436.093 365.962 444.586 444.93 444.677 445.717C444.689 445.797 444.632 445.865 444.552 445.876C444.541 445.876 444.529 445.876 444.529 445.876Z" fill="black"/>
<path d="M412.746 142.83C412.7 143.526 412.301 144.084 411.857 144.084C411.401 144.084 411.07 143.526 411.116 142.83C411.161 142.135 411.56 141.576 412.005 141.576C412.461 141.576 412.791 142.146 412.746 142.83Z" fill="#263238"/>
<path d="M404.925 142.83C404.88 143.526 404.481 144.084 404.036 144.084C403.592 144.084 403.249 143.526 403.295 142.83C403.341 142.135 403.74 141.576 404.184 141.576C404.629 141.576 404.971 142.146 404.925 142.83Z" fill="#263238"/>
<path d="M407.388 143.184C407.388 143.184 405.575 147.174 403.729 149.1C404.891 150.24 407 149.716 407 149.716L407.388 143.184Z" fill="#DF5753"/>
<path d="M407.594 152.623C407.48 152.623 407.4 152.532 407.4 152.418C407.412 152.304 407.503 152.213 407.617 152.213C410.661 152.213 412.2 150.092 412.211 150.07C412.28 149.978 412.405 149.944 412.496 150.013C412.587 150.07 412.61 150.195 412.542 150.298C412.473 150.389 410.855 152.623 407.594 152.623Z" fill="#263238"/>
<path d="M414.137 140.733C414.023 140.779 413.886 140.767 413.784 140.699C412.29 139.753 410.888 140.391 410.877 140.391C410.683 140.494 410.432 140.402 410.341 140.197C410.261 139.992 410.352 139.753 410.569 139.65C410.637 139.616 412.393 138.818 414.24 139.992C414.422 140.106 414.468 140.357 414.342 140.551C414.297 140.642 414.228 140.699 414.137 140.733Z" fill="#263238"/>
<path d="M401.904 138.454C401.847 138.442 401.79 138.408 401.745 138.363C401.585 138.214 401.585 137.952 401.745 137.793C403.341 136.117 405.176 136.368 405.256 136.379C405.472 136.402 405.621 136.618 405.575 136.846C405.529 137.063 405.313 137.223 405.096 137.188C405.039 137.177 403.591 136.995 402.326 138.34C402.212 138.454 402.041 138.499 401.904 138.454Z" fill="#263238"/>
<path d="M444.792 185.045L432.936 181.887C432.936 181.887 421.308 210.512 417.204 212.382C411.618 214.924 397.459 223.725 391.451 227.966C391.121 229.379 391.383 233.164 392.135 234.19C402.361 232.332 422.037 224.762 426.141 220.92C435.489 212.154 444.792 185.045 444.792 185.045Z" fill="#E58A7B"/>
<path d="M436.515 467.286C435.866 467.286 435.261 467.172 434.885 466.853C434.589 466.591 434.475 466.237 434.532 465.781C434.577 465.439 434.76 465.28 434.908 465.211C435.877 464.721 438.556 466.42 438.852 466.625C438.921 466.671 438.955 466.75 438.932 466.83C438.909 466.91 438.852 466.978 438.773 466.99C438.18 467.115 437.313 467.286 436.515 467.286ZM435.341 465.508C435.239 465.508 435.147 465.519 435.079 465.553C435.022 465.588 434.954 465.633 434.942 465.793C434.908 466.112 434.976 466.363 435.17 466.534C435.615 466.933 436.732 466.978 438.203 466.693C437.268 466.123 436.002 465.508 435.341 465.508Z" fill="#263238"/>
<path d="M438.726 466.979C438.692 466.979 438.658 466.968 438.635 466.957C437.78 466.478 436.173 464.597 436.401 463.639C436.446 463.468 436.583 463.16 437.085 463.103C437.404 463.069 437.689 463.149 437.94 463.366C438.886 464.175 438.954 466.66 438.954 466.763C438.954 466.843 438.92 466.911 438.852 466.945C438.806 466.968 438.772 466.979 438.726 466.979ZM437.199 463.502C437.165 463.502 437.142 463.502 437.108 463.514C436.845 463.548 436.811 463.673 436.8 463.719C436.663 464.289 437.666 465.703 438.51 466.375C438.453 465.646 438.259 464.209 437.655 463.685C437.518 463.559 437.37 463.502 437.199 463.502Z" fill="#263238"/>
<path d="M406.248 465.861C405.405 466.066 404.607 466.123 404.094 465.849C403.763 465.678 403.581 465.382 403.535 464.983C403.512 464.743 403.592 464.538 403.763 464.379C404.686 463.558 408.403 464.436 408.825 464.538C408.904 464.561 408.961 464.629 408.973 464.721C408.973 464.812 408.927 464.892 408.847 464.926C408.152 465.234 407.172 465.633 406.248 465.861ZM404.39 464.504C404.23 464.538 404.116 464.595 404.025 464.664C403.957 464.732 403.923 464.8 403.934 464.903C403.968 465.177 404.082 465.359 404.299 465.484C404.903 465.815 406.305 465.553 408.118 464.8C406.852 464.538 405.188 464.31 404.39 464.504Z" fill="#263238"/>
<path d="M408.812 464.938C408.79 464.949 408.755 464.949 408.733 464.938C407.627 464.733 405.267 463.422 405.244 462.441C405.244 462.213 405.347 461.894 405.883 461.712C406.27 461.564 406.681 461.598 407.057 461.78C408.299 462.396 408.938 464.585 408.972 464.676C408.995 464.744 408.972 464.824 408.926 464.87C408.892 464.904 408.847 464.927 408.812 464.938ZM406.111 462.054C406.076 462.065 406.031 462.077 405.997 462.088C405.643 462.213 405.643 462.362 405.643 462.407C405.655 463 407.296 464.083 408.448 464.448C408.22 463.821 407.661 462.544 406.852 462.145C406.612 462.02 406.361 461.997 406.111 462.054Z" fill="#263238"/>
<path d="M392.408 227.283L380.518 232.755L379.139 236.107L383.528 239.059C383.528 239.059 391.724 238.17 394.061 232.903L392.408 227.283Z" fill="#E58A7B"/>
<path d="M392.911 234.384C392.17 229.972 390.711 227.954 390.699 227.931L392.569 226.529C392.637 226.62 394.37 228.957 395.214 233.996L392.911 234.384Z" fill="#263238"/>
<path d="M394.94 228.9C395.327 229.858 394.7 231.009 393.56 231.465C392.409 231.933 391.166 231.534 390.779 230.576C390.391 229.618 391.018 228.467 392.158 228.011C393.31 227.555 394.552 227.943 394.94 228.9Z" fill="#263238"/>
<path d="M372.48 237.177L374.065 238.773L384.735 234.213L380.517 232.754L372.48 237.177Z" fill="#E58A7B"/>
<path d="M447.88 181.761C451.015 191.873 438.806 205.679 438.806 205.679L421.877 198.77C421.877 198.77 424.26 191.429 428.797 181.59C433.961 170.407 444.711 171.558 447.88 181.761Z" fill="#23A455"/>
<path opacity="0.2" d="M447.88 181.761C451.015 191.873 438.806 205.679 438.806 205.679L421.877 198.77C421.877 198.77 424.26 191.429 428.797 181.59C433.961 170.407 444.711 171.558 447.88 181.761Z" fill="black"/>
<path d="M373.963 126.911L373.082 146.477L374.255 146.529L375.136 126.964L373.963 126.911Z" fill="#23A455"/>
<path d="M371.695 85.7168H237.175L224.658 365.838H359.178L371.695 85.7168Z" fill="#8CCDA7"/>
<path d="M223.259 367.18L235.553 92.0703H365.068L352.774 367.18H223.259Z" fill="white" stroke="#455A64" stroke-width="5"/>
<path d="M233.103 236.518L234.016 216.086H347.836L346.923 236.518H233.103Z" stroke="#EDEDED"/>
<path d="M296.683 199.945H234.234L233.812 209.533H296.262L296.683 199.945Z" fill="#23A455"/>
<path d="M230.515 294.373L231.428 273.93H345.248L344.335 294.373H230.515Z" stroke="#EDEDED"/>
<path opacity="0.47" d="M324.715 323.807H247.503L246.352 349.491H323.564L324.715 323.807Z" fill="#23A455"/>
<path d="M319.55 353.481H242.338C242.304 353.481 242.27 353.469 242.235 353.435C242.213 353.412 242.201 353.367 242.201 353.333L243.353 327.637C243.353 327.569 243.421 327.512 243.489 327.512H320.702C320.736 327.512 320.77 327.523 320.804 327.557C320.827 327.58 320.838 327.626 320.838 327.66L319.687 353.355C319.676 353.424 319.619 353.481 319.55 353.481ZM242.475 353.207H319.413L320.553 327.785H243.615L242.475 353.207Z" fill="white"/>
<path d="M283.197 257.789H231.646L231.225 267.388H282.764L283.197 257.789Z" fill="#23A455"/>
<path d="M323.244 146.353C322.959 152.771 320.634 158.699 316.906 163.51C311.274 170.806 302.451 175.549 292.738 175.549C283.025 175.549 274.635 170.806 269.664 163.51C266.37 158.699 264.569 152.771 264.854 146.353C265.572 130.222 279.229 117.146 295.349 117.146C311.468 117.146 323.963 130.222 323.244 146.353Z" fill="white"/>
<path d="M325.993 123.258C325.913 124.968 325.297 126.541 324.306 127.818C322.812 129.756 320.464 131.021 317.887 131.021C315.311 131.021 313.077 129.756 311.754 127.818C310.876 126.541 310.398 124.968 310.477 123.258C310.671 118.971 314.296 115.494 318.583 115.494C322.858 115.506 326.175 118.971 325.993 123.258Z" fill="#23A455"/>
<path d="M245.907 226.302C245.827 228.195 244.219 229.734 242.316 229.734C240.423 229.734 238.953 228.195 239.032 226.302C239.112 224.41 240.72 222.871 242.623 222.871C244.516 222.871 245.986 224.399 245.907 226.302Z" fill="#263238"/>
<path d="M261.274 226.302C261.194 228.195 259.587 229.734 257.683 229.734C255.79 229.734 254.32 228.195 254.4 226.302C254.479 224.41 256.087 222.871 257.991 222.871C259.894 222.871 261.365 224.399 261.274 226.302Z" fill="#263238"/>
<path d="M276.653 226.302C276.573 228.195 274.965 229.734 273.062 229.734C271.169 229.734 269.699 228.195 269.778 226.302C269.858 224.41 271.466 222.871 273.369 222.871C275.273 222.871 276.732 224.399 276.653 226.302Z" fill="#263238"/>
<path d="M243.319 284.144C243.239 286.037 241.632 287.576 239.728 287.576C237.835 287.576 236.365 286.037 236.445 284.144C236.524 282.252 238.132 280.713 240.035 280.713C241.928 280.713 243.398 282.252 243.319 284.144Z" fill="#263238"/>
<path d="M258.686 284.144C258.606 286.037 256.999 287.576 255.095 287.576C253.202 287.576 251.732 286.037 251.812 284.144C251.891 282.252 253.499 280.713 255.403 280.713C257.307 280.713 258.777 282.252 258.686 284.144Z" fill="#263238"/>
<path d="M274.065 284.144C273.985 286.037 272.378 287.576 270.474 287.576C268.581 287.576 267.111 286.037 267.191 284.144C267.27 282.252 268.878 280.713 270.782 280.713C272.685 280.713 274.156 282.252 274.065 284.144Z" fill="#263238"/>
<path d="M289.444 284.144C289.364 286.037 287.757 287.576 285.853 287.576C283.96 287.576 282.49 286.037 282.57 284.144C282.649 282.252 284.257 280.713 286.161 280.713C288.053 280.713 289.524 282.252 289.444 284.144Z" fill="#263238"/>
<path d="M304.823 284.144C304.743 286.037 303.135 287.576 301.232 287.576C299.339 287.576 297.869 286.037 297.948 284.144C298.028 282.252 299.636 280.713 301.539 280.713C303.432 280.713 304.902 282.252 304.823 284.144Z" fill="#263238"/>
<path d="M302.543 144.853C307.314 140.187 307.568 132.708 303.109 128.148C298.651 123.588 291.168 123.674 286.396 128.339C281.624 133.005 281.37 140.484 285.829 145.044C290.288 149.604 297.771 149.519 302.543 144.853Z" fill="#23A455"/>
<path d="M316.894 163.509C311.262 170.805 302.439 175.548 292.726 175.548C283.013 175.548 274.623 170.805 269.652 163.509C275.193 157.992 283.959 154.412 293.672 154.412C303.396 154.412 311.844 157.992 316.894 163.509Z" fill="#23A455"/>
<path opacity="0.1" d="M302.543 144.853C307.314 140.187 307.568 132.708 303.109 128.148C298.651 123.588 291.168 123.674 286.396 128.339C281.624 133.005 281.37 140.484 285.829 145.044C290.288 149.604 297.771 149.519 302.543 144.853Z" fill="white"/>
<path opacity="0.1" d="M316.894 163.509C311.262 170.805 302.439 175.548 292.726 175.548C283.013 175.548 274.623 170.805 269.652 163.509C275.193 157.992 283.959 154.412 293.672 154.412C303.396 154.412 311.844 157.992 316.894 163.509Z" fill="white"/>
<path d="M149.168 242.18C148.085 244.551 146.957 247.151 145.953 249.693C144.95 252.258 143.947 254.823 143.069 257.433C141.371 262.643 139.775 267.899 138.999 273.165L138.737 274.841C138.715 275.046 138.737 275.331 138.817 275.696C138.988 276.426 139.433 277.395 140.071 278.341C141.359 280.268 143.172 282.217 145.133 284.018C147.094 285.854 149.214 287.609 151.426 289.285C153.614 290.972 155.917 292.614 158.174 294.153L156.054 298.154C150.628 295.783 145.577 292.944 140.687 289.388C138.281 287.552 135.91 285.58 133.801 282.912C132.764 281.567 131.749 280.051 131.077 278.045C130.757 277.041 130.529 275.913 130.529 274.693C130.541 274.408 130.552 274.02 130.575 273.827L130.632 273.257L130.746 272.128C131.361 266.086 132.707 260.272 134.474 254.64C135.363 251.825 136.309 249.043 137.392 246.307C138.498 243.56 139.592 240.915 140.972 238.145L149.168 242.18Z" fill="#E58A7B"/>
<path d="M156.579 293.47L164.639 289.389L162.553 298.246C162.553 298.246 157.024 299.797 154.447 297.106L156.579 293.47Z" fill="#E58A7B"/>
<path d="M172.015 290.836L169.872 298.155L162.553 298.235L164.639 289.389L172.015 290.836Z" fill="#E58A7B"/>
<path d="M183.391 199.5C183.391 199.5 184.086 202.065 185.192 204.003C184.234 204.892 183.391 204.584 183.391 204.584V199.5Z" fill="#DF5753"/>
<path d="M183.152 199.567C183.624 199.567 184.007 198.98 184.007 198.256C184.007 197.532 183.624 196.945 183.152 196.945C182.68 196.945 182.297 197.532 182.297 198.256C182.297 198.98 182.68 199.567 183.152 199.567Z" fill="#263238"/>
<path d="M182.947 196.992L184.68 196.49C184.68 196.502 183.791 197.847 182.947 196.992Z" fill="#263238"/>
<path d="M161.126 207.867C162.164 213.18 163.201 222.904 159.496 226.438C159.496 226.438 160.944 231.819 170.805 231.819C181.646 231.819 175.992 226.438 175.992 226.438C170.075 225.024 170.223 220.635 171.261 216.508L161.126 207.867Z" fill="#E58A7B"/>
<path d="M158.242 195.782C158.79 204.64 158.824 208.402 163.304 212.951C170.03 219.791 180.803 217.18 182.912 208.345C184.816 200.388 183.607 187.232 174.932 183.71C166.393 180.233 157.707 186.925 158.242 195.782Z" fill="#E58A7B"/>
<path d="M159.121 185.762C154.675 187.381 148.747 186.172 151.072 199.886C153.535 214.41 149.75 219.187 149.75 219.187C149.75 219.187 166.611 222.778 183.825 218.97C183.825 218.97 178.569 209.782 180.04 203.078C181.921 194.528 180.427 191.359 180.427 191.359C180.427 191.359 165.368 183.482 159.121 185.762Z" fill="#263238"/>
<path d="M177.93 200.4C177.908 202.156 178.523 203.923 179.321 205.154C180.518 207.001 181.943 206.248 182.308 204.333C182.627 202.612 182.388 199.568 180.849 198.382C179.344 197.22 177.953 198.394 177.93 200.4Z" fill="#E58A7B"/>
<path d="M155.256 187.313C153.979 183.733 160.067 178.216 172.949 180.507C185.831 182.798 186.39 193.514 186.39 193.514L183.779 190.425L183.893 193.685L170.658 196.228L155.256 187.313Z" fill="#263238"/>
<path d="M156.35 227.041C156.167 225.947 156.908 224.91 158.003 224.739C162.016 224.077 171.124 222.732 175.718 223.371C179.127 223.838 180.028 225.833 180.176 227.463C180.278 228.672 179.287 229.686 178.078 229.629L158.254 228.729C157.296 228.683 156.509 227.976 156.35 227.041Z" fill="#23A455"/>
<path opacity="0.6" d="M156.35 227.041C156.167 225.947 156.908 224.91 158.003 224.739C162.016 224.077 171.124 222.732 175.718 223.371C179.127 223.838 180.028 225.833 180.176 227.463C180.278 228.672 179.287 229.686 178.078 229.629L158.254 228.729C157.296 228.683 156.509 227.976 156.35 227.041Z" fill="black"/>
<path d="M167.807 426.2L175.16 431.307L187.46 414.629L180.107 409.533L167.807 426.2Z" fill="#E58A7B"/>
<path d="M150.662 425.87L158.426 430.293L169.313 412.658L161.549 408.234L150.662 425.87Z" fill="#E58A7B"/>
<path d="M187.449 414.629L181.111 423.225L173.758 418.129L180.108 409.533L187.449 414.629Z" fill="#CF6F64"/>
<path d="M161.537 408.234L169.311 412.669L163.703 421.755L155.928 417.32L161.537 408.234Z" fill="#CF6F64"/>
<path d="M174.009 282.709C174.009 282.709 202.714 318.893 197.333 353.48C192.978 381.422 167.796 419.258 167.796 419.258L155.951 413.376C155.951 413.376 168.822 388.227 177.269 361.574C180.815 350.391 179.298 338.079 172.675 328.4C158.129 307.162 134.838 319.793 150.513 282.709H174.009Z" fill="#263238"/>
<path opacity="0.4" d="M188.088 305.952L183.916 301.803C183.916 302.133 191.999 352.02 194.267 366.042C195.635 361.744 196.695 357.503 197.322 353.468C199.967 336.539 194.427 319.211 188.088 305.952Z" fill="black"/>
<path d="M186.823 282.709C186.823 282.709 221.388 328.172 222.357 355.43C223.167 378.275 184.703 422.405 184.703 422.405L173.531 415.177C173.531 415.177 196.023 383.804 201.689 358.166C199.534 332.778 153.193 282.709 153.193 282.709H186.823Z" fill="#263238"/>
<path d="M144.061 228.467C140.356 229.345 136.822 242.774 136.822 242.774L151.255 252.407C151.255 252.407 156.065 241.783 154.39 237.131C152.645 232.298 148.735 227.362 144.061 228.467Z" fill="#23A455"/>
<path opacity="0.2" d="M146.888 237.107L145.885 248.815L151.254 252.418C151.254 252.418 153.774 246.854 154.526 241.998L146.888 237.107Z" fill="black"/>
<path d="M191.097 228.729C191.097 228.729 195.361 230.234 186.822 282.708C172.412 282.708 157.513 282.708 150.502 282.708C151.106 267.923 151.129 258.814 144.061 228.467C144.061 228.467 151.676 226.814 159.485 226.438C165.595 226.142 170.6 225.948 175.981 226.438C183.071 227.088 191.097 228.729 191.097 228.729Z" fill="#23A455"/>
<path d="M194.792 237.063C195.613 239.343 196.491 241.794 197.391 244.165C198.258 246.559 199.17 248.953 200.093 251.336L202.886 258.495L203.593 260.285L203.946 261.174L204.129 261.618C204.163 261.698 204.151 261.687 204.14 261.687C204.094 261.664 204.049 261.436 203.342 260.98C203 260.763 202.419 260.558 201.849 260.547C201.29 260.524 200.834 260.661 200.583 260.775C200.07 261.025 200.059 261.128 200.07 261.105C200.104 261.094 200.207 260.991 200.321 260.843C200.823 260.25 201.415 259.213 201.951 258.187C202.487 257.138 203 256.021 203.513 254.892C204.516 252.624 205.44 250.253 206.374 247.87C207.298 245.487 208.164 243.071 209.031 240.642L211.63 233.369L216.019 234.475C215.152 239.685 214.024 244.781 212.69 249.888C212.04 252.453 211.276 254.995 210.41 257.56C209.977 258.848 209.498 260.125 208.939 261.436C208.358 262.758 207.788 264.046 206.773 265.563C206.511 265.95 206.203 266.349 205.782 266.794C205.337 267.227 204.813 267.763 203.707 268.264C203.148 268.504 202.384 268.709 201.495 268.675C200.606 268.652 199.717 268.333 199.09 267.945C197.824 267.136 197.391 266.372 197.015 265.791C196.844 265.506 196.696 265.198 196.593 264.993L196.377 264.548L195.943 263.659L195.077 261.892C193.948 259.521 192.843 257.138 191.805 254.721C190.768 252.305 189.765 249.876 188.784 247.425C187.849 244.94 186.926 242.535 186.094 239.89L194.792 237.063Z" fill="#E58A7B"/>
<path d="M191.098 228.728C195.465 229.766 200.367 242.67 200.367 242.67L187.393 253.728C187.393 253.728 178.98 239.661 180.69 235.021C182.457 230.176 185.398 227.372 191.098 228.728Z" fill="#23A455"/>
<path d="M213.659 229.356L218.208 225.549L221.377 230.485L219.04 234.612C219.04 234.612 215.323 238.009 212.029 236.288C210.98 233.859 211.63 231.044 213.659 229.356Z" fill="#E58A7B"/>
<path d="M226.472 225.56L226.13 226.803L218.914 228.011L218.207 225.549L226.472 225.56Z" fill="#E58A7B"/>
<path d="M185.636 422.997L172.617 414.584L174.954 410.525L189.58 419.52L185.636 422.997Z" fill="black"/>
<path d="M163.499 429.699C162.461 429.699 161.105 429.038 160.273 428.582C160.193 428.536 160.159 428.456 160.17 428.376C160.182 428.296 160.239 428.217 160.318 428.194C160.672 428.08 163.761 427.134 164.627 427.875C164.764 427.989 164.924 428.205 164.867 428.559C164.798 429.038 164.582 429.368 164.228 429.55C164.023 429.653 163.772 429.699 163.499 429.699ZM160.934 428.445C162.347 429.163 163.487 429.436 164.035 429.163C164.263 429.049 164.399 428.832 164.445 428.502C164.468 428.319 164.411 428.239 164.342 428.194C163.898 427.806 162.188 428.103 160.934 428.445Z" fill="#263238"/>
<path d="M160.385 428.605C160.328 428.605 160.271 428.582 160.237 428.536C160.18 428.479 160.168 428.4 160.18 428.331C160.214 428.229 160.921 425.755 162.095 425.185C162.403 425.037 162.722 425.025 163.03 425.151C163.52 425.356 163.566 425.721 163.554 425.914C163.474 426.94 161.388 428.354 160.431 428.593C160.419 428.605 160.396 428.605 160.385 428.605ZM162.597 425.493C162.494 425.493 162.391 425.515 162.277 425.572C161.582 425.903 160.989 427.248 160.716 428.058C161.719 427.636 163.087 426.519 163.132 425.892C163.144 425.789 163.121 425.664 162.87 425.55C162.779 425.515 162.676 425.493 162.597 425.493Z" fill="#263238"/>
<path d="M179.788 434.624C178.5 434.624 176.71 432.971 175.73 431.957C175.661 431.888 175.65 431.797 175.695 431.717C175.741 431.638 175.844 431.592 175.912 431.603C176.368 431.66 180.324 432.196 180.894 433.313C180.996 433.53 180.996 433.758 180.871 433.986C180.666 434.351 180.358 434.567 179.97 434.613C179.902 434.613 179.845 434.624 179.788 434.624ZM176.482 432.116C177.918 433.518 179.184 434.294 179.902 434.191C180.153 434.157 180.347 434.02 180.483 433.769C180.54 433.678 180.54 433.587 180.495 433.507C180.198 432.891 178.089 432.367 176.482 432.116Z" fill="#263238"/>
<path d="M176.609 432.071C176.312 432.071 176.05 432.049 175.845 432.014C175.776 432.003 175.708 431.946 175.685 431.878C175.662 431.809 175.674 431.729 175.719 431.672C175.788 431.593 177.327 429.734 178.786 429.609C179.242 429.575 179.63 429.7 179.96 429.974C180.405 430.361 180.382 430.703 180.268 430.92C179.915 431.684 177.942 432.071 176.609 432.071ZM176.312 431.65C177.589 431.718 179.618 431.296 179.892 430.738C179.915 430.692 179.983 430.555 179.687 430.293C179.436 430.088 179.151 429.997 178.832 430.019C177.863 430.122 176.802 431.137 176.312 431.65Z" fill="#263238"/>
<path d="M160.693 427.408L151.026 424.672C150.673 424.57 150.319 424.741 150.171 425.071L146.911 432.413C146.569 433.177 147.047 434.123 147.857 434.328C151.243 435.229 152.93 435.479 157.182 436.688C159.793 437.429 163.543 438.774 167.157 439.8C170.691 440.803 171.968 437.303 170.554 436.551C164.216 433.199 163.714 430.897 161.981 428.343C161.674 427.887 161.206 427.556 160.693 427.408Z" fill="#23A455"/>
<path d="M175.993 430.623L167.74 424.889C167.443 424.683 167.056 424.718 166.805 424.98L161.333 430.862C160.763 431.466 160.9 432.515 161.606 432.983C164.513 434.932 166.018 435.73 169.655 438.249C171.889 439.8 176.347 443.243 179.425 445.374C182.446 447.472 184.794 444.576 183.7 443.414C178.798 438.181 177.726 434.898 176.917 431.922C176.768 431.398 176.438 430.931 175.993 430.623Z" fill="#23A455"/>
<path d="M169.301 420.02L154.424 412.622L155.963 408.586L171.854 416.384L169.301 420.02Z" fill="black"/>
<path d="M149.955 280.575L148.701 283.824C148.575 284.075 148.872 284.337 149.294 284.337H187.005C187.335 284.337 187.609 284.178 187.62 283.973L187.951 280.724C187.974 280.496 187.689 280.313 187.335 280.313H150.548C150.285 280.302 150.046 280.416 149.955 280.575Z" fill="#23A455"/>
<path opacity="0.4" d="M149.955 280.575L148.701 283.824C148.575 284.075 148.872 284.337 149.294 284.337H187.005C187.335 284.337 187.609 284.178 187.62 283.973L187.951 280.724C187.974 280.496 187.689 280.313 187.335 280.313H150.548C150.285 280.302 150.046 280.416 149.955 280.575Z" fill="white"/>
<path d="M155.894 284.691H154.913C154.719 284.691 154.571 284.589 154.583 284.463L155.05 280.234C155.061 280.108 155.232 280.006 155.426 280.006H156.407C156.6 280.006 156.749 280.108 156.737 280.234L156.27 284.463C156.258 284.589 156.087 284.691 155.894 284.691Z" fill="#23A455"/>
<path d="M179.15 284.691H178.169C177.975 284.691 177.827 284.589 177.839 284.463L178.306 280.234C178.317 280.108 178.488 280.006 178.682 280.006H179.663C179.856 280.006 180.005 280.108 179.993 280.234L179.526 284.463C179.526 284.589 179.355 284.691 179.15 284.691Z" fill="#23A455"/>
<path d="M155.027 477.749C171.894 477.749 185.568 476.759 185.568 475.538C185.568 474.316 171.894 473.326 155.027 473.326C138.16 473.326 124.486 474.316 124.486 475.538C124.486 476.759 138.16 477.749 155.027 477.749Z" fill="#F5F5F5"/>
<path d="M173.632 472.415C168.228 470.842 162.278 468.824 158.607 466.681C158.504 466.624 158.402 466.578 158.288 466.521V442.091H169.152C170.953 442.091 172.401 440.632 172.401 438.842C172.401 437.041 170.942 435.593 169.152 435.593H158.288V324.078H151.778V435.593H140.914C139.113 435.593 137.665 437.052 137.665 438.842C137.665 440.643 139.124 442.091 140.914 442.091H151.778V466.521C151.676 466.578 151.562 466.624 151.459 466.681C147.777 468.835 141.837 470.853 136.434 472.415C134.655 472.928 135.032 475.539 136.878 475.539H155.027H173.176C175.034 475.539 175.41 472.928 173.632 472.415Z" fill="#E0E0E0"/>
<path d="M175.307 336.585H134.768C131.519 336.585 128.863 333.929 128.863 330.68V318.63C128.863 315.381 131.519 312.725 134.768 312.725H175.307C178.556 312.725 181.212 315.381 181.212 318.63V330.68C181.212 333.929 178.556 336.585 175.307 336.585Z" fill="#23A455"/>
<path d="M134.393 336.584V338.659C134.393 340.369 136.251 341.771 138.531 341.771H171.545C173.825 341.771 175.683 340.369 175.683 338.659V336.584H134.393Z" fill="#23A455"/>
<path opacity="0.3" d="M134.393 336.584V338.659C134.393 340.369 136.251 341.771 138.531 341.771H171.545C173.825 341.771 175.683 340.369 175.683 338.659V336.584H134.393Z" fill="white"/>
</g>
</g>
<defs>
<clipPath id="clip0_25_1663">
<rect width="570" height="570" fill="white" transform="translate(0.5)"/>
</clipPath>
<clipPath id="clip1_25_1663">
<rect width="570" height="570" fill="white" transform="translate(0.5)"/>
</clipPath>
</defs>
</svg>
