<svg width="25" height="25" viewBox="0 0 25 25" fill="none" xmlns="http://www.w3.org/2000/svg">
<g clip-path="url(#clip0_25_1858)">
<path d="M15.7205 5.31817C15.7205 5.31817 15.4941 5.38484 15.1092 5.50706C15.0413 5.30706 14.9507 5.05151 14.8149 4.80708C14.3847 3.99599 13.7507 3.57377 12.9809 3.56266C12.9243 3.56266 12.879 3.56266 12.8224 3.57377C12.7998 3.55155 12.7771 3.51822 12.7545 3.496C12.4262 3.14045 11.996 2.97379 11.4866 2.9849C10.5017 3.01823 9.51675 3.71821 8.71297 4.96263C8.14693 5.84038 7.72807 6.94035 7.60354 7.78478C6.47146 8.12921 5.67901 8.37365 5.65637 8.37365C5.07901 8.55142 5.06769 8.57364 4.98844 9.09585C4.93184 9.49584 3.4375 20.8733 3.4375 20.8733L15.8677 22.9844V5.29595C15.8111 5.29595 15.7545 5.30706 15.7205 5.31817ZM12.845 6.19593C12.1884 6.39592 11.4639 6.61814 10.7507 6.82925C10.9545 6.0626 11.3394 5.30706 11.8149 4.80708C11.996 4.61819 12.2337 4.4182 12.5281 4.29598C12.7998 4.86263 12.8564 5.6515 12.845 6.19593ZM11.4979 3.62933C11.7243 3.62933 11.9281 3.67377 12.0979 3.78488C11.8262 3.91821 11.5771 4.1182 11.3281 4.37375C10.7054 5.02929 10.2186 6.0626 10.0262 7.05146C9.42618 7.22923 8.84882 7.40701 8.30542 7.57367C8.64505 6.00704 9.9809 3.67377 11.4979 3.62933ZM9.57335 12.5069C9.64127 13.5402 12.4262 13.7735 12.5847 16.2068C12.7092 18.1179 11.5545 19.4289 9.87901 19.5289C7.88656 19.6512 6.77712 18.4956 6.77712 18.4956L7.19599 16.729C7.19599 16.729 8.30542 17.5512 9.18844 17.4957C9.7658 17.4623 9.96958 16.9957 9.95825 16.6735C9.86769 15.3179 7.60354 15.3957 7.46769 13.1735C7.34316 11.2958 8.59976 9.40695 11.362 9.22918C12.4375 9.16252 12.9809 9.42918 12.9809 9.42918L12.3469 11.7514C12.3469 11.7514 11.645 11.4403 10.8073 11.4847C9.58467 11.5625 9.56203 12.318 9.57335 12.5069ZM13.5016 5.99593C13.4903 5.50706 13.4337 4.81819 13.196 4.22931C13.9432 4.37375 14.3167 5.19595 14.4752 5.69594C14.1922 5.78483 13.8639 5.88483 13.5016 5.99593ZM16.2752 22.94L18.8564 22.3122L21.4375 21.6844C21.4375 21.6844 19.2186 6.95146 19.2073 6.85147C19.196 6.75147 19.1054 6.69591 19.0262 6.6848C18.9469 6.67369 17.4979 6.65147 17.4979 6.65147C17.4979 6.65147 16.6149 5.80705 16.2752 5.48484V22.94Z" fill="white"/>
</g>
<defs>
<clipPath id="clip0_25_1858">
<rect width="24" height="24" fill="white" transform="translate(0.4375 0.984375)"/>
</clipPath>
</defs>
</svg>
