<svg width="25" height="25" viewBox="0 0 25 25" fill="none" xmlns="http://www.w3.org/2000/svg">
<g clip-path="url(#clip0_25_1888)">
<path d="M14.8424 10.4074L9.78242 15.4674C9.13242 14.8174 8.73242 13.9274 8.73242 12.9374C8.73242 10.9574 10.3324 9.35742 12.3124 9.35742C13.3024 9.35742 14.1924 9.75742 14.8424 10.4074Z" stroke="#CBCBCB" stroke-width="1.5" stroke-linecap="round" stroke-linejoin="round"/>
<path d="M18.1323 6.70797C16.3823 5.38797 14.3823 4.66797 12.3123 4.66797C8.78234 4.66797 5.49234 6.74797 3.20234 10.348C2.30234 11.758 2.30234 14.128 3.20234 15.538C3.99234 16.778 4.91234 17.848 5.91234 18.708" stroke="#CBCBCB" stroke-width="1.5" stroke-linecap="round" stroke-linejoin="round"/>
<path d="M8.73242 20.4672C9.87242 20.9472 11.0824 21.2072 12.3124 21.2072C15.8424 21.2072 19.1324 19.1272 21.4224 15.5272C22.3224 14.1172 22.3224 11.7472 21.4224 10.3372C21.0924 9.81719 20.7324 9.32719 20.3624 8.86719" stroke="#CBCBCB" stroke-width="1.5" stroke-linecap="round" stroke-linejoin="round"/>
<path d="M15.8239 13.6367C15.5639 15.0467 14.4139 16.1967 13.0039 16.4567" stroke="#CBCBCB" stroke-width="1.5" stroke-linecap="round" stroke-linejoin="round"/>
<path d="M9.7825 15.4668L2.3125 22.9368" stroke="#CBCBCB" stroke-width="1.5" stroke-linecap="round" stroke-linejoin="round"/>
<path d="M22.3118 2.9375L14.8418 10.4075" stroke="#CBCBCB" stroke-width="1.5" stroke-linecap="round" stroke-linejoin="round"/>
</g>
<defs>
<clipPath id="clip0_25_1888">
<rect width="24" height="24" fill="white" transform="translate(0.3125 0.9375)"/>
</clipPath>
</defs>
</svg>
