<svg width="72" height="51" viewBox="0 0 72 51" fill="none" xmlns="http://www.w3.org/2000/svg">
<g clip-path="url(#clip0_122_2576)">
<g opacity="0.65">
<path d="M36.0376 27.8312C36.4876 27.7812 36.9376 27.7813 37.4376 27.7813C41.1376 27.7813 44.4376 28.6312 46.6876 29.9312" stroke="black" stroke-opacity="0.87" stroke-miterlimit="10" stroke-linecap="round"/>
<path d="M46.7375 14.5813C44.5375 15.9313 41.1875 16.7813 37.4375 16.7813C33.7375 16.7813 30.4375 15.9313 28.1875 14.6313" stroke="black" stroke-opacity="0.87" stroke-miterlimit="10"/>
<path d="M25.4375 22.2812H49.4375" stroke="black" stroke-opacity="0.87" stroke-miterlimit="10"/>
<path d="M37.4375 10.2812V34.2812" stroke="black" stroke-opacity="0.87" stroke-miterlimit="10"/>
<path d="M35.5875 34.1313C36.1875 34.2313 36.8375 34.2812 37.4375 34.2812C44.0875 34.2812 49.4375 28.9313 49.4375 22.2812C49.4375 15.6312 44.0875 10.2812 37.4375 10.2812C30.7875 10.2812 25.4375 15.6312 25.4375 22.2812C25.4375 23.2812 25.5875 24.2312 25.7875 25.1812" stroke="black" stroke-opacity="0.87" stroke-miterlimit="10" stroke-linecap="round"/>
<path d="M35.8375 33.8813C36.3375 34.1813 36.8875 34.2812 37.4375 34.2812C40.7375 34.2812 43.4375 28.9313 43.4375 22.2812C43.4375 15.6312 40.7375 10.2812 37.4375 10.2812C34.1375 10.2812 31.4375 15.6312 31.4375 22.2812C31.4375 22.9812 31.4875 23.6313 31.5375 24.2812C31.5375 24.3313 31.5375 24.3813 31.5375 24.3813" stroke="black" stroke-opacity="0.87" stroke-miterlimit="10" stroke-linecap="round"/>
</g>
<path opacity="0.8" d="M18.6376 18.7313C20.0876 17.2813 21.3376 16.3313 18.7876 13.1313C16.2376 9.93132 14.4876 12.3813 13.0876 13.8313C11.4376 15.4813 12.9876 21.5313 18.9876 27.5813C24.9876 33.6313 31.1376 35.1813 32.7376 33.5313C34.1376 32.1313 36.6376 30.3813 33.4376 27.7813C30.2376 25.1813 29.2876 26.4813 27.8376 27.9313C26.8376 28.9313 24.2376 26.8313 21.9876 24.5813C19.7376 22.3313 17.6376 19.7313 18.6376 18.7313Z" fill="black" fill-opacity="0.87"/>
</g>
<defs>
<clipPath id="clip0_122_2576">
<rect width="40" height="25" fill="white" transform="translate(11.1875 9.78125)"/>
</clipPath>
</defs>
</svg>
