<svg width="20" height="21" viewBox="0 0 20 21" fill="none" xmlns="http://www.w3.org/2000/svg">
<g clip-path="url(#clip0_122_2223)">
<mask id="mask0_122_2223" style="mask-type:luminance" maskUnits="userSpaceOnUse" x="0" y="0" width="20" height="21">
<path d="M20 0.4375H0V20.4383H20V0.4375Z" fill="white"/>
</mask>
<g mask="url(#mask0_122_2223)">
<path d="M14.0293 6.78635C13.7194 6.47669 13.218 6.47694 12.9086 6.78635L10.0004 9.69456L7.09321 6.78635C6.78355 6.47694 6.28219 6.47669 5.97253 6.78635C5.66313 7.09575 5.66313 7.59736 5.97253 7.90702L8.87998 10.8153L5.97253 13.7222C5.66313 14.0319 5.66313 14.5332 5.97253 14.8429C6.12711 14.9975 6.32999 15.0747 6.53287 15.0747C6.7355 15.0747 6.93838 14.9975 7.09321 14.8429L10.0004 11.9357L12.9066 14.8426C13.0611 14.9975 13.264 15.0747 13.4669 15.0747C13.6698 15.0747 13.8724 14.9975 14.027 14.8429C14.3367 14.5335 14.3367 14.0319 14.0272 13.7225L11.1208 10.8153L14.0293 7.90677C14.3387 7.59762 14.3387 7.09575 14.0293 6.78635Z" fill="#F95F62"/>
<path d="M10.0017 0.4375C4.48676 0.4375 0 4.92426 0 10.4392C0 15.9528 4.48676 20.4383 10.0017 20.4383C15.5148 20.4383 20 15.9525 20 10.4389C20 4.92426 15.5148 0.4375 10.0017 0.4375ZM10.0017 18.8539C5.36057 18.8539 1.58491 15.079 1.58491 10.4392C1.58491 5.79807 5.36083 2.02241 10.0017 2.02241C14.6412 2.02241 18.4153 5.79833 18.4153 10.4392C18.4153 15.079 14.641 18.8539 10.0017 18.8539Z" fill="#F95F62"/>
</g>
</g>
<defs>
<clipPath id="clip0_122_2223">
<rect width="20" height="20" fill="white" transform="translate(0 0.4375)"/>
</clipPath>
</defs>
</svg>
